<svg xmlns="http://www.w3.org/2000/svg" viewBox="-2606.73 -531.156 124.965 339.195">
  <defs>
    <style>
      .cls-1 {
        fill: #868e94;
      }

      .cls-1, .cls-10, .cls-11, .cls-12, .cls-13, .cls-14, .cls-15, .cls-16, .cls-17, .cls-2, .cls-3, .cls-4, .cls-5, .cls-6, .cls-7, .cls-8, .cls-9 {
        stroke: #111110;
        stroke-miterlimit: 10;
        stroke-width: 0.5px;
      }

      .cls-2 {
        fill: #a4abad;
      }

      .cls-3 {
        fill: #727d85;
      }

      .cls-4 {
        fill: #636f79;
      }

      .cls-5 {
        fill: #637079;
      }

      .cls-6 {
        fill: #9a9ea6;
      }

      .cls-7 {
        fill: #579982;
      }

      .cls-8 {
        fill: #5bba9d;
      }

      .cls-9 {
        fill: #448c77;
      }

      .cls-10 {
        fill: #52a38b;
      }

      .cls-11 {
        fill: #61bb9e;
      }

      .cls-12 {
        fill: #438d76;
      }

      .cls-13 {
        fill: #88c9b4;
      }

      .cls-14 {
        fill: #4da48a;
      }

      .cls-15 {
        fill: #5cba9f;
      }

      .cls-16 {
        fill: #438d77;
      }

      .cls-17 {
        fill: #f4dfae;
      }
    </style>
  </defs>
  <g id="Statue_1_" transform="translate(-2606.48 -529.813)">
    <g id="socle_1_" transform="translate(0 206.643)">
      <rect id="Rectangle_175" data-name="Rectangle 175" class="cls-1" width="124.465" height="12.215" transform="translate(0 118.744)"/>
      <rect id="Rectangle_176" data-name="Rectangle 176" class="cls-2" width="101.891" height="12.215" transform="translate(11.519 106.53)"/>
      <rect id="Rectangle_177" data-name="Rectangle 177" class="cls-3" width="75.22" height="6.88" transform="translate(24.429 99.649)"/>
      <rect id="Rectangle_178" data-name="Rectangle 178" class="cls-2" width="86.739" height="12.678" transform="translate(18.94 86.971)"/>
      <rect id="Rectangle_179" data-name="Rectangle 179" class="cls-3" width="11.751" height="60.068" transform="translate(24.429 26.903)"/>
      <rect id="Rectangle_180" data-name="Rectangle 180" class="cls-3" width="11.751" height="60.068" transform="translate(87.899 26.903)"/>
      <rect id="Rectangle_181" data-name="Rectangle 181" class="cls-4" width="11.751" height="6.803" transform="translate(24.429 20.1)"/>
      <rect id="Rectangle_182" data-name="Rectangle 182" class="cls-1" width="51.796" height="6.803" transform="translate(36.18 20.1)"/>
      <rect id="Rectangle_183" data-name="Rectangle 183" class="cls-4" width="11.751" height="6.803" transform="translate(87.899 20.1)"/>
      <rect id="Rectangle_184" data-name="Rectangle 184" class="cls-2" width="51.796" height="60.068" transform="translate(36.18 26.903)"/>
      <rect id="Rectangle_185" data-name="Rectangle 185" class="cls-5" width="6.494" height="23.579" transform="translate(42.364 31.928)"/>
      <rect id="Rectangle_186" data-name="Rectangle 186" class="cls-5" width="6.494" height="23.579" transform="translate(53.729 31.928)"/>
      <rect id="Rectangle_187" data-name="Rectangle 187" class="cls-5" width="6.494" height="23.579" transform="translate(65.17 31.928)"/>
      <rect id="Rectangle_188" data-name="Rectangle 188" class="cls-5" width="6.494" height="23.579" transform="translate(76.534 31.928)"/>
      <rect id="Rectangle_189" data-name="Rectangle 189" class="cls-2" width="86.739" height="12.215" transform="translate(18.94 7.885)"/>
      <rect id="Rectangle_190" data-name="Rectangle 190" class="cls-6" width="75.22" height="7.885" transform="translate(24.429)"/>
    </g>
    <g id="statut_1_" transform="translate(24.893 0)">
      <rect id="Rectangle_191" data-name="Rectangle 191" class="cls-7" width="21.491" height="27.444" transform="translate(37.958 166.984)"/>
      <rect id="Rectangle_192" data-name="Rectangle 192" class="cls-8" width="22.883" height="20.1" transform="translate(16.08 174.328)"/>
      <path id="Tracé_8" data-name="Tracé 8" class="cls-9" d="M82.8,233.526l20.486-10.746V215.9L82.8,226.723Z" transform="translate(-43.837 -50.076)"/>
      <path id="Tracé_9" data-name="Tracé 9" class="cls-10" d="M55.692,240.923,52.6,243.01v5.8l3.092-1.082,20.255-10.668V230.1Z" transform="translate(-36.984 -53.298)"/>
      <rect id="Rectangle_193" data-name="Rectangle 193" class="cls-11" width="32.083" height="6.107" transform="translate(6.88 200.535)"/>
      <rect id="Rectangle_194" data-name="Rectangle 194" class="cls-12" width="28.913" height="6.107" transform="translate(38.886 200.535)"/>
      <rect id="Rectangle_195" data-name="Rectangle 195" class="cls-13" width="32.083" height="6.107" transform="translate(6.88 194.428)"/>
      <rect id="Rectangle_196" data-name="Rectangle 196" class="cls-14" width="28.913" height="6.107" transform="translate(38.886 194.428)"/>
      <path id="Tracé_10" data-name="Tracé 10" class="cls-15" d="M46.912,203.469l26.516-14.3V48.7L70.8,61.224l-2.087.077-6.726-8.349,3.324,11.21-1.237,1.005-10.437-2.86,8.117,6.185.077,2.551-9.9,2.01,9.973,2.087,3.4,8.5-1.7,2.4c-3.633-4.02-7.112-7.112-9.586-6.571l-3.865-8.581L49.076,56.353l-7.576.077V74.6l3.479,10.359c-5.257,10.591-3.865,20.718,4.716,30.459Z" transform="translate(-34.465 -12.134)"/>
      <path id="Tracé_11" data-name="Tracé 11" class="cls-13" d="M60.816,147.4,56.1,222.7l9.663-5.18Z" transform="translate(-37.778 -34.531)"/>
      <path id="Tracé_12" data-name="Tracé 12" class="cls-13" d="M76.7,211.983,81.493,138v71.432Z" transform="translate(-42.453 -32.398)"/>
      <path id="Tracé_13" data-name="Tracé 13" class="cls-15" d="M46.934,30.308h6.958v-6.03H46.934V22.5h-8.04v1.778H32.4v6.03h6.494l.618,9.045h0A6.884,6.884,0,0,0,36.575,45a6.8,6.8,0,1,0,10.359-5.8h0Z" transform="translate(-32.4 -6.188)"/>
      <path id="Tracé_14" data-name="Tracé 14" class="cls-16" d="M106.4,175.407,82.9,189.168V48.7l2.242,11.983,2.01.464L93.8,53.338l-2.938,10.2,1.546,1.546,9.354-2.474-7.576,6.417.464,2.087,8.5,1.855-8.89,1.855L90.4,83.8c-.155,3.788.928,7.963,2.319,12.215,5.489,1.778,8.195,5.875,8.117,12.446l2.242-3.17,13.915,7.885-5.566,10.2c2.01,9.354.387,17.626-6.107,24.429Z" transform="translate(-43.86 -12.134)"/>
      <path id="Tracé_15" data-name="Tracé 15" class="cls-14" d="M98.107,124.7,93.7,201.544l10.05-5.875Z" transform="translate(-46.311 -29.38)"/>
      <path id="Tracé_16" data-name="Tracé 16" class="cls-14" d="M82.9,209.432l5.334-3.17L82.9,138Z" transform="translate(-43.86 -32.398)"/>
      <path id="Tracé_17" data-name="Tracé 17" class="cls-17" d="M39.653,17.635C34.706,14,34.86,10.136,37.875,6.116c2.01-1.933,4.716-2.474,7.963-1.623,4.87,1.082,8.272.155,9.818-3.092C55.5,3.255,55.579,5.111,53.1,7.43a3.933,3.933,0,0,0,3.17-.618c-.077,2.319-.7,4.561-4.948,6.03-2.551,1.237-3.788,2.783-3.556,4.716H39.653Z" transform="translate(-33.16 -1.4)"/>
    </g>
  </g>
</svg>
